<svg width="245" height="71" viewBox="0 0 245 71" fill="none" xmlns="http://www.w3.org/2000/svg">
<path d="M0 0H62.1365C62.1329 12.5433 62.1096 25.0992 62.0667 37.6677C62.0416 44.8752 59.4394 50.973 54.26 55.9609C47.5869 62.3796 39.8967 67.3926 31.1891 71H30.6035C18.6705 66.1268 3.41711 56.4773 0 43.2508V0ZM60.1486 1.6728L1.72467 1.67818C1.49185 1.67818 1.37544 1.79293 1.37544 2.02242C1.3432 13.4757 1.33962 24.9289 1.36469 36.3821C1.37186 39.7277 1.57423 42.1715 1.97182 43.7134C4.99134 55.4284 20.3253 64.6477 30.4208 69.0744C30.553 69.1321 30.6957 69.162 30.8399 69.162C30.9841 69.162 31.1268 69.1321 31.259 69.0744C41.3814 64.7014 56.4467 55.4714 59.6059 43.9178C60.0357 42.3329 60.2507 39.8371 60.2507 36.4305C60.2399 24.8661 60.2381 13.3125 60.2453 1.76962C60.2453 1.74394 60.2351 1.71932 60.217 1.70116C60.1988 1.683 60.1742 1.6728 60.1486 1.6728Z" fill="white"/>
<path d="M56.5542 39.3996C56.5488 50.7489 41.1235 60.0434 32.0165 64.5831C30.5337 65.3254 30.5014 64.9489 28.954 64.2281C20.465 60.2693 8.97257 52.7175 5.87784 43.3369C5.44085 42.0137 5.22236 40.3535 5.22236 38.3562C5.21161 27.4372 5.20803 16.5254 5.21161 5.62085C5.21161 5.42004 5.31011 5.31964 5.50711 5.31964H56.2801C56.4736 5.31964 56.5703 5.41825 56.5703 5.61547C56.5703 16.8643 56.5649 28.1257 56.5542 39.3996ZM17.7571 22.6178C16.3172 23.9804 15.0635 25.309 13.9961 26.6035C13.6487 27.0242 13.4587 27.553 13.4589 28.0988L13.5072 47.57C13.5072 47.7708 13.6057 47.8712 13.8027 47.8712H34.3376C34.5029 47.8712 34.6613 47.8054 34.7782 47.6884L49.4835 33.1226C49.659 32.9469 49.7486 32.7353 49.7522 32.4879L49.7898 12.2529C49.7905 12.2072 49.7821 12.1619 49.7652 12.1195C49.7482 12.0771 49.723 12.0385 49.691 12.006C49.659 11.9735 49.6208 11.9476 49.5788 11.93C49.5367 11.9124 49.4915 11.9033 49.4459 11.9033L29.3839 11.8871C29.2228 11.8872 29.0655 11.936 28.9326 12.027C28.0371 12.6222 27.2276 13.2892 26.504 14.0279C23.6385 16.9432 20.7229 19.8065 17.7571 22.6178Z" fill="white"/>
<path d="M92.0308 18.8096C89.9462 13.8988 80.345 16.529 82.8648 19.2507C83.4272 19.8567 84.371 20.287 85.6963 20.5416C91.4613 21.6496 100.257 22.5801 100.015 29.9921C99.7193 38.9908 87.6251 39.405 81.4142 37.5009C77.4437 36.2853 74.9829 33.8971 74.3489 29.8146C74.3095 29.5744 74.4134 29.4542 74.6606 29.4542L81.0059 29.4381C81.2351 29.4381 81.3963 29.5421 81.4894 29.7501C83.1012 33.3162 87.3834 33.5475 90.6662 32.7622C91.9771 32.4448 92.8905 31.7026 92.7992 30.3363C92.5252 26.0602 77.492 28.5506 75.5578 20.7944C72.49 8.4662 98.0968 6.92786 98.9779 18.7773C98.9886 18.9638 98.9027 19.057 98.72 19.057L92.4231 19.0678C92.2332 19.0714 92.1025 18.9853 92.0308 18.8096Z" fill="white"/>
<path d="M115.118 17.2874C107.558 18.304 106.634 29.2015 113.468 31.7887C117.503 33.3162 120.824 31.1593 122.35 27.3673C122.425 27.1772 122.563 27.0822 122.763 27.0822L128.797 27.0661C128.965 27.0661 129.039 27.1486 129.017 27.3135C128.408 32.0504 126.205 35.2777 122.409 36.9953C118.341 38.8349 113.055 38.6251 108.971 36.678C102.282 33.4884 100.267 24.9737 103.201 18.5837C106.296 11.8602 114.93 9.76789 121.35 11.9194C124.069 12.8338 127.814 15.5877 128.27 18.6644C128.282 18.7506 128.264 18.8384 128.218 18.9129C128.172 18.9875 128.101 19.0441 128.018 19.0732L122.538 20.8912C122.452 20.9196 122.359 20.9168 122.276 20.8833C122.192 20.8498 122.123 20.7879 122.081 20.7083C120.602 18.001 118.281 16.8607 115.118 17.2874Z" fill="white"/>
<path d="M149.359 32.2028L139.827 32.1866C139.766 32.1866 139.706 32.2058 139.656 32.2414C139.606 32.2771 139.568 32.3275 139.548 32.3857L137.63 38.0172C137.61 38.0754 137.572 38.1258 137.522 38.1615C137.472 38.1971 137.412 38.2163 137.351 38.2163H130.151C130.103 38.2169 130.055 38.2057 130.012 38.1835C129.969 38.1613 129.932 38.1289 129.904 38.089C129.876 38.0492 129.859 38.0031 129.853 37.955C129.848 37.9068 129.854 37.858 129.872 37.8129L139.956 11.3492C139.978 11.2939 140.016 11.2464 140.064 11.2129C140.113 11.1793 140.171 11.1612 140.23 11.161L149.16 11.1556C149.22 11.1562 149.278 11.1751 149.327 11.2097C149.376 11.2443 149.413 11.2929 149.434 11.3492L159.465 37.829C159.483 37.8742 159.489 37.923 159.483 37.9711C159.478 38.0193 159.46 38.0653 159.433 38.1052C159.405 38.145 159.368 38.1774 159.325 38.1996C159.282 38.2218 159.234 38.2331 159.186 38.2324L151.793 38.2055C151.731 38.2055 151.671 38.1864 151.621 38.1507C151.571 38.115 151.533 38.0646 151.513 38.0065L149.638 32.4018C149.618 32.3437 149.58 32.2932 149.53 32.2576C149.48 32.2219 149.42 32.2027 149.359 32.2028ZM141.219 26.8832C141.206 26.9221 141.203 26.9636 141.209 27.0041C141.216 27.0446 141.231 27.083 141.256 27.1161C141.28 27.1492 141.311 27.1761 141.348 27.1945C141.385 27.2129 141.425 27.2224 141.466 27.222L147.758 27.2005C147.799 27.2003 147.839 27.1902 147.876 27.1711C147.912 27.1521 147.944 27.1245 147.967 27.0908C147.991 27.0571 148.006 27.0183 148.012 26.9775C148.017 26.9366 148.013 26.8951 147.999 26.8563L144.819 17.4111C144.801 17.36 144.768 17.3158 144.723 17.2847C144.679 17.2536 144.626 17.2372 144.572 17.2378C144.518 17.2384 144.466 17.256 144.422 17.288C144.379 17.3201 144.346 17.365 144.33 17.4165L141.219 26.8832Z" fill="white"/>
<path d="M170.957 32.6707L184.911 32.66C184.996 32.66 185.078 32.694 185.139 32.7545C185.199 32.815 185.233 32.8971 185.233 32.9827L185.228 37.8882C185.228 37.9738 185.194 38.0558 185.133 38.1164C185.073 38.1769 184.991 38.2109 184.905 38.2109L163.21 38.2163C163.124 38.2163 163.042 38.1823 162.982 38.1217C162.921 38.0612 162.887 37.9791 162.887 37.8935L162.893 11.4891C162.893 11.4035 162.927 11.3214 162.987 11.2609C163.048 11.2003 163.13 11.1663 163.215 11.1663L170.334 11.1556C170.376 11.1556 170.418 11.1639 170.458 11.1801C170.497 11.1964 170.532 11.2201 170.562 11.2501C170.592 11.2801 170.616 11.3156 170.632 11.3548C170.648 11.394 170.657 11.4359 170.657 11.4783L170.635 32.348C170.635 32.3904 170.643 32.4324 170.66 32.4715C170.676 32.5107 170.7 32.5462 170.729 32.5762C170.759 32.6062 170.795 32.6299 170.834 32.6462C170.873 32.6624 170.915 32.6707 170.957 32.6707Z" fill="white"/>
<path d="M196.462 17.04L196.473 21.6873C196.473 21.7672 196.505 21.8438 196.561 21.9003C196.617 21.9568 196.694 21.9885 196.774 21.9885L210.388 22.0046C210.468 22.0046 210.545 22.0364 210.601 22.0929C210.658 22.1494 210.689 22.226 210.689 22.3059L210.684 26.9101C210.684 26.99 210.652 27.0666 210.596 27.1231C210.539 27.1796 210.463 27.2113 210.383 27.2113L196.795 27.2059C196.756 27.2059 196.717 27.2137 196.68 27.2289C196.644 27.244 196.61 27.2662 196.582 27.2942C196.554 27.3221 196.532 27.3553 196.517 27.3919C196.502 27.4284 196.494 27.4676 196.494 27.5071L196.451 32.3642C196.451 32.4042 196.458 32.4439 196.473 32.4811C196.487 32.5183 196.51 32.5521 196.538 32.5807C196.566 32.6092 196.599 32.6319 196.636 32.6474C196.673 32.6628 196.712 32.6708 196.752 32.6708L211.334 32.66C211.414 32.66 211.49 32.6918 211.547 32.7483C211.603 32.8047 211.635 32.8814 211.635 32.9612L211.672 37.9097C211.672 37.9896 211.641 38.0662 211.584 38.1227C211.528 38.1792 211.451 38.2109 211.372 38.2109L189.015 38.2217C188.936 38.2217 188.859 38.19 188.803 38.1335C188.746 38.077 188.714 38.0004 188.714 37.9205L188.725 11.4622C188.725 11.3823 188.757 11.3057 188.813 11.2492C188.87 11.1927 188.946 11.161 189.026 11.161H211.361C211.441 11.161 211.517 11.1927 211.574 11.2492C211.63 11.3057 211.662 11.3823 211.662 11.4622L211.656 16.4376C211.656 16.4772 211.649 16.5163 211.633 16.5529C211.618 16.5894 211.596 16.6226 211.568 16.6506C211.54 16.6786 211.507 16.7007 211.471 16.7159C211.434 16.731 211.395 16.7388 211.355 16.7388H196.763C196.683 16.7388 196.607 16.7705 196.55 16.827C196.494 16.8835 196.462 16.9601 196.462 17.04Z" fill="white"/>
<path d="M222.66 28.642L222.671 37.8129C222.671 37.9184 222.629 38.0197 222.554 38.0943C222.48 38.169 222.378 38.2109 222.273 38.2109H215.439C215.235 38.2109 215.133 38.1105 215.133 37.9097L215.127 11.5644C215.127 11.3528 215.233 11.2434 215.444 11.2363C222.346 11.0641 227.674 11.0606 231.428 11.2255C236.119 11.4299 240.267 14.6572 240.202 19.5519C240.154 23.1288 238.413 26.0064 234.899 27.0391C234.834 27.0587 234.774 27.0935 234.724 27.1406C234.674 27.1877 234.637 27.2457 234.614 27.3099C234.592 27.3741 234.585 27.4425 234.594 27.5096C234.603 27.5766 234.629 27.6403 234.668 27.6954L241.637 37.6676C241.891 38.0298 241.796 38.2109 241.352 38.2109L233.594 38.2163C233.436 38.2163 233.316 38.1499 233.234 38.0173L227.28 28.6205C227.233 28.5448 227.167 28.4824 227.089 28.4392C227.011 28.3959 226.923 28.3732 226.835 28.3731L222.971 28.3354C222.931 28.3347 222.89 28.3421 222.853 28.3572C222.815 28.3723 222.78 28.3948 222.751 28.4233C222.722 28.4519 222.699 28.4859 222.684 28.5234C222.668 28.561 222.66 28.6013 222.66 28.642ZM222.655 16.9754L222.665 22.9029C222.667 22.9932 222.704 23.0794 222.768 23.1428C222.832 23.2062 222.919 23.2417 223.009 23.2417L228.865 23.2363C229.327 23.2355 229.785 23.1551 230.211 22.9998C230.637 22.8444 231.025 22.6171 231.35 22.3308C231.676 22.0446 231.934 21.705 232.11 21.3315C232.286 20.958 232.375 20.558 232.374 20.1543V19.681C232.371 18.8672 231.999 18.0878 231.339 17.514C230.679 16.9402 229.786 16.6188 228.855 16.6204L222.998 16.6258C222.953 16.6258 222.908 16.6349 222.866 16.6525C222.823 16.6702 222.785 16.696 222.753 16.7285C222.721 16.7611 222.696 16.7997 222.679 16.842C222.662 16.8844 222.654 16.9298 222.655 16.9754Z" fill="white"/>
<path d="M34.6331 27.5824C34.6338 27.5163 34.6214 27.4506 34.5966 27.3893C34.5719 27.328 34.5352 27.2722 34.4887 27.2252C34.4422 27.1782 34.3869 27.1409 34.3259 27.1154C34.2649 27.0899 34.1995 27.0768 34.1335 27.0768L16.6611 27.1037C16.3459 27.1037 16.2904 26.9818 16.4945 26.7379C18.3428 24.5828 20.3361 22.607 22.4745 20.8105C23.8177 19.681 25.2361 19.8047 26.8641 19.8262C31.7497 19.8836 36.6121 19.9212 41.4512 19.9391C41.5225 19.9391 41.5908 19.9675 41.6412 20.0179C41.6916 20.0684 41.7199 20.1368 41.7199 20.2081L41.7414 38.0441C41.7413 38.1159 41.7276 38.1866 41.7008 38.2521C41.6741 38.3177 41.6349 38.3768 41.5855 38.426L35.251 44.7676C34.7997 45.2194 34.5758 45.1262 34.5794 44.4879L34.6331 27.5824Z" fill="white"/>
<path d="M27.7432 33.2074L20.1353 33.2207C19.8208 33.2212 19.5662 33.4769 19.5668 33.7918L19.5796 41.1285C19.5801 41.4434 19.8356 41.6982 20.1501 41.6976L27.758 41.6843C28.0725 41.6838 28.327 41.4281 28.3265 41.1132L28.3137 33.7765C28.3132 33.4617 28.0577 33.2068 27.7432 33.2074Z" fill="white"/>
<path d="M125.417 46.0532H125.074C124.72 46.0532 124.434 46.3397 124.434 46.6932V57.3325C124.434 57.686 124.72 57.9726 125.074 57.9726H125.417C125.771 57.9726 126.057 57.686 126.057 57.3325V46.6932C126.057 46.3397 125.771 46.0532 125.417 46.0532Z" fill="white"/>
<path d="M144.867 51.2706C144.802 53.0528 144.813 54.8314 144.899 56.6064C144.924 57.1335 144.81 57.5297 144.555 57.7951C144.453 57.903 144.322 57.9782 144.177 58.0109C144.032 58.0436 143.881 58.0324 143.743 57.9787C143.604 57.925 143.485 57.8313 143.4 57.7095C143.315 57.5877 143.268 57.4434 143.266 57.2949L143.196 51.6149C143.192 51.4322 143.119 51.2602 142.992 51.1361L142.369 50.5283C142.333 50.4928 142.305 50.45 142.287 50.4028C142.269 50.3557 142.261 50.3052 142.264 50.2548C142.267 50.2044 142.281 50.1552 142.305 50.1106C142.328 50.0659 142.361 50.0268 142.401 49.9958L142.97 49.5709C143.022 49.5304 143.065 49.479 143.095 49.4204C143.124 49.3618 143.141 49.2975 143.142 49.2321C143.207 47.2383 144.249 46.1518 146.269 45.9725C146.735 45.9295 147.098 46.0317 147.36 46.2791C147.471 46.3822 147.547 46.5168 147.58 46.6647C147.612 46.8127 147.598 46.967 147.54 47.1069C147.482 47.2468 147.383 47.3657 147.256 47.4475C147.128 47.5293 146.979 47.5702 146.828 47.5646C145.684 47.5216 144.324 47.7421 144.921 49.3181C144.992 49.5082 145.128 49.6104 145.329 49.6247L146.747 49.7215C146.793 49.7249 146.838 49.7374 146.879 49.7582C146.919 49.7791 146.956 49.8079 146.985 49.843C147.015 49.8781 147.037 49.9187 147.05 49.9625C147.064 50.0063 147.069 50.0524 147.064 50.098L147.021 50.6198C147 50.86 146.869 50.9784 146.629 50.9748L145.195 50.9586C144.983 50.9586 144.874 51.0626 144.867 51.2706Z" fill="white"/>
<path d="M211.829 46.0315L211.646 46.0318C211.254 46.0325 210.937 46.351 210.938 46.7431L210.956 57.2532C210.957 57.6453 211.275 57.9627 211.667 57.962L211.849 57.9617C212.241 57.961 212.558 57.6425 212.557 57.2504L212.539 46.7403C212.538 46.3482 212.22 46.0308 211.829 46.0315Z" fill="white"/>
<path d="M96.0927 50.3778C96.8126 49.9367 97.264 49.5656 98.086 49.4203C103.26 48.5059 102.142 54.7561 102.078 57.5853C102.071 57.8507 101.937 57.969 101.675 57.9403L100.831 57.8489C100.599 57.8238 100.484 57.6947 100.488 57.4616C100.509 54.8475 100.491 53.1873 100.434 52.4809C100.262 50.3025 97.0222 50.6252 96.1572 52.1097C95.4426 53.3361 95.679 55.9663 95.6951 57.5746C95.6959 57.6235 95.6867 57.6721 95.6681 57.7173C95.6496 57.7625 95.622 57.8033 95.5872 57.8371C95.5524 57.8709 95.5111 57.8971 95.4658 57.9139C95.4206 57.9308 95.3724 57.9379 95.3244 57.935L94.3788 57.8812C94.1818 57.8704 94.0833 57.7646 94.0833 57.5638L94.1101 46.5319C94.1099 46.4572 94.1333 46.3845 94.1768 46.3245C94.2203 46.2645 94.2817 46.2203 94.3519 46.1984C94.8677 46.0335 95.2492 46.0514 95.4963 46.2522C95.6682 46.3957 95.7399 46.6879 95.7112 47.129C95.6432 48.1474 95.6414 49.1621 95.7058 50.1734C95.709 50.217 95.7233 50.2592 95.7472 50.2958C95.7711 50.3325 95.804 50.3625 95.8427 50.3829C95.8814 50.4033 95.9246 50.4136 95.9683 50.4127C96.0121 50.4118 96.0549 50.3998 96.0927 50.3778Z" fill="white"/>
<path d="M181.719 50.5391C183.707 48.8501 187.688 48.6834 187.882 52.1366C187.986 53.9725 187.989 55.8139 187.892 57.6606C187.882 57.8829 187.765 57.9815 187.543 57.9564L186.673 57.8596C186.584 57.8502 186.503 57.8079 186.444 57.7412C186.385 57.6745 186.354 57.5881 186.356 57.4992C186.399 55.2132 187.044 51.1469 184.513 50.9425C180.913 50.6413 181.413 55.2509 181.552 57.4293C181.559 57.536 181.527 57.6416 181.462 57.7273C181.397 57.813 181.303 57.8732 181.198 57.8972C180.689 58.0156 180.331 57.9546 180.123 57.7144C179.994 57.5673 179.928 57.2697 179.925 56.8215C179.907 53.3719 179.919 49.9241 179.962 46.4781C179.963 46.4286 179.973 46.3798 179.993 46.3346C180.013 46.2894 180.042 46.2487 180.079 46.2151C180.115 46.1814 180.157 46.1554 180.204 46.1386C180.25 46.1219 180.3 46.1148 180.349 46.1177L181.284 46.1661C181.474 46.1769 181.567 46.2773 181.563 46.4673L181.461 50.4154C181.454 50.6484 181.54 50.6897 181.719 50.5391Z" fill="white"/>
<path d="M76.8796 49.4203C76.7614 50.0335 77.1052 50.5015 77.9111 50.8242C78.957 51.2437 80.0101 51.6776 81.0703 52.1259C83.8749 53.3092 83.3914 56.8592 80.6137 57.6929C79.12 58.1447 74.2361 58.0371 74.4779 55.4822C74.4889 55.3779 74.5282 55.2786 74.5916 55.1951C74.6549 55.1115 74.7398 55.0468 74.8371 55.0081C74.9345 54.9693 75.0406 54.9579 75.1439 54.9751C75.2473 54.9923 75.3439 55.0375 75.4235 55.1057C76.6808 56.203 80.8608 57.6606 80.9199 54.5947C80.9235 54.4864 80.8915 54.3789 80.8286 54.2881C79.4478 52.2549 75.9554 53.2339 75.0582 50.4369C74.5155 48.7533 75.531 47.3656 77.1697 46.8815C78.0723 46.618 83.1281 46.4136 82.5103 48.3984C82.4762 48.5114 82.4173 48.6154 82.3379 48.7027C82.2584 48.7901 82.1604 48.8587 82.0508 48.9034C81.9413 48.9482 81.823 48.9681 81.7045 48.9617C81.586 48.9553 81.4704 48.9227 81.3658 48.8663C80.2429 48.2585 77.2503 47.5646 76.8796 49.4203Z" fill="white"/>
<path d="M154.538 48.2585L151.513 48.1617C151.431 48.1589 151.354 48.124 151.298 48.0647C151.242 48.0053 151.211 47.9262 151.212 47.8443L151.234 47.0698C151.235 46.988 151.269 46.91 151.327 46.8527C151.385 46.7953 151.464 46.7632 151.545 46.7632L159.787 46.7578C159.83 46.7577 159.872 46.7664 159.912 46.7834C159.951 46.8004 159.986 46.8254 160.016 46.8567C160.045 46.8879 160.067 46.9249 160.082 46.9653C160.096 47.0057 160.102 47.0486 160.099 47.0913L160.034 47.9788C160.029 48.0587 159.993 48.1334 159.934 48.1875C159.875 48.2415 159.797 48.2708 159.717 48.2693L156.73 48.1886C156.688 48.1871 156.647 48.1941 156.608 48.2092C156.569 48.2242 156.533 48.2469 156.503 48.2761C156.473 48.3052 156.449 48.34 156.433 48.3786C156.416 48.4172 156.408 48.4586 156.408 48.5005L156.419 57.5746C156.419 57.6528 156.39 57.7284 156.337 57.7862C156.284 57.844 156.212 57.8798 156.134 57.8865L155.204 57.9672C155.161 57.9709 155.118 57.9656 155.077 57.9516C155.036 57.9377 154.998 57.9153 154.966 57.8859C154.935 57.8566 154.909 57.8209 154.892 57.7812C154.875 57.7415 154.866 57.6986 154.866 57.6552L154.839 48.5705C154.839 48.4896 154.808 48.4118 154.752 48.3536C154.695 48.2954 154.619 48.2613 154.538 48.2585Z" fill="white"/>
<path d="M90.3598 51.3728C87.0287 48.8609 83.762 54.6807 87.5767 56.3267C88.6871 56.8036 89.8082 56.5615 90.9401 55.6005C91.0002 55.5497 91.0763 55.5218 91.155 55.5218C91.2337 55.5218 91.3098 55.5497 91.3699 55.6005C91.8857 56.0308 92.0361 56.7085 91.386 57.1227C88.9145 58.6772 85.4974 58.0156 84.4981 55.2832C82.897 50.8941 87.6143 47.8497 91.3323 50.1303C91.448 50.202 91.5382 50.3085 91.5902 50.4349C91.6423 50.5613 91.6535 50.7012 91.6224 50.8349C91.4147 51.674 90.9938 51.8533 90.3598 51.3728Z" fill="white"/>
<path d="M112.598 53.648C112.598 54.8135 112.135 55.9312 111.312 56.7554C110.489 57.5795 109.372 58.0425 108.208 58.0425C107.044 58.0425 105.928 57.5795 105.104 56.7554C104.281 55.9312 103.819 54.8135 103.819 53.648C103.819 52.4825 104.281 51.3648 105.104 50.5406C105.928 49.7165 107.044 49.2535 108.208 49.2535C109.372 49.2535 110.489 49.7165 111.312 50.5406C112.135 51.3648 112.598 52.4825 112.598 53.648ZM110.981 53.6641C110.981 52.9209 110.686 52.2081 110.161 51.6826C109.636 51.157 108.924 50.8618 108.181 50.8618C107.439 50.8618 106.727 51.157 106.202 51.6826C105.677 52.2081 105.382 52.9209 105.382 53.6641C105.382 54.4074 105.677 55.1202 106.202 55.6457C106.727 56.1712 107.439 56.4665 108.181 56.4665C108.924 56.4665 109.636 56.1712 110.161 55.6457C110.686 55.1202 110.981 54.4074 110.981 53.6641Z" fill="white"/>
<path d="M122.495 53.6426C122.495 54.8096 122.032 55.9287 121.207 56.7538C120.383 57.5789 119.265 58.0425 118.1 58.0425C116.934 58.0425 115.816 57.5789 114.992 56.7538C114.168 55.9287 113.705 54.8096 113.705 53.6426C113.705 52.4757 114.168 51.3566 114.992 50.5315C115.816 49.7064 116.934 49.2428 118.1 49.2428C119.265 49.2428 120.383 49.7064 121.207 50.5315C122.032 51.3566 122.495 52.4757 122.495 53.6426ZM120.894 53.6695C120.894 52.9249 120.598 52.2107 120.072 51.6842C119.546 51.1576 118.833 50.8618 118.089 50.8618C117.345 50.8618 116.632 51.1576 116.106 51.6842C115.58 52.2107 115.284 52.9249 115.284 53.6695C115.284 54.4142 115.58 55.1284 116.106 55.6549C116.632 56.1815 117.345 56.4773 118.089 56.4773C118.833 56.4773 119.546 56.1815 120.072 55.6549C120.598 55.1284 120.894 54.4142 120.894 53.6695Z" fill="white"/>
<path d="M141.095 53.6426C141.095 54.8067 140.633 55.9231 139.811 56.7462C138.989 57.5693 137.874 58.0317 136.711 58.0317C135.548 58.0317 134.433 57.5693 133.611 56.7462C132.789 55.9231 132.327 54.8067 132.327 53.6426C132.327 52.4786 132.789 51.3622 133.611 50.5391C134.433 49.716 135.548 49.2535 136.711 49.2535C137.874 49.2535 138.989 49.716 139.811 50.5391C140.633 51.3622 141.095 52.4786 141.095 53.6426ZM139.505 53.6695C139.505 52.9249 139.209 52.2107 138.684 51.6842C138.158 51.1576 137.444 50.8618 136.7 50.8618C135.957 50.8618 135.243 51.1576 134.717 51.6842C134.191 52.2107 133.896 52.9249 133.896 53.6695C133.896 54.4142 134.191 55.1283 134.717 55.6549C135.243 56.1814 135.957 56.4773 136.7 56.4773C137.444 56.4773 138.158 56.1814 138.684 55.6549C139.209 55.1283 139.505 54.4142 139.505 53.6695Z" fill="white"/>
<path d="M162.479 54.7668C163.045 56.0434 164.018 56.6422 165.397 56.5633C166.278 56.5095 166.976 55.934 167.841 55.7888C167.971 55.7658 168.105 55.788 168.22 55.8518C168.336 55.9156 168.426 56.0172 168.476 56.1399C168.526 56.2626 168.533 56.399 168.496 56.5268C168.458 56.6546 168.379 56.7661 168.271 56.843C165.73 58.6234 161.662 58.2899 160.91 54.8798C159.486 48.4683 168.9 47.1236 169.05 53.3899C169.064 53.9994 168.767 54.3024 168.158 54.2989L162.785 54.2935C162.73 54.2929 162.675 54.3064 162.626 54.3329C162.577 54.3593 162.536 54.3978 162.505 54.4448C162.475 54.4919 162.456 54.546 162.452 54.6022C162.447 54.6584 162.457 54.715 162.479 54.7668ZM162.587 53.0241L167.454 53.0133C167.476 53.0133 167.496 53.0048 167.511 52.9897C167.526 52.9746 167.535 52.9541 167.535 52.9327V52.8896C167.534 52.3155 167.275 51.7654 166.817 51.36C166.359 50.9546 165.738 50.7271 165.09 50.7273H164.951C164.629 50.7275 164.311 50.7838 164.014 50.8931C163.717 51.0025 163.447 51.1626 163.22 51.3645C162.993 51.5663 162.813 51.8059 162.691 52.0694C162.568 52.333 162.505 52.6153 162.506 52.9004V52.9434C162.506 52.9648 162.514 52.9853 162.53 53.0005C162.545 53.0156 162.565 53.0241 162.587 53.0241Z" fill="white"/>
<path d="M173.042 56.0793C174.134 56.8717 175.336 56.7462 176.647 55.7027C176.785 55.5937 176.957 55.5386 177.132 55.5477C177.307 55.5569 177.473 55.6297 177.598 55.7525C177.723 55.8752 177.8 56.0396 177.812 56.2146C177.825 56.3897 177.774 56.5634 177.668 56.7032C176.319 58.4621 172.644 58.1555 171.333 56.7408C169.512 54.7722 169.727 51.1738 172.258 49.8291C173.945 48.9362 175.693 49.1101 177.501 50.3508C177.562 50.3922 177.607 50.4532 177.629 50.5236C177.65 50.5941 177.647 50.6698 177.62 50.7381L177.319 51.4804C177.296 51.5376 177.26 51.5887 177.214 51.6296C177.168 51.6706 177.113 51.7003 177.054 51.7165C176.995 51.7327 176.932 51.7348 176.872 51.7228C176.812 51.7107 176.755 51.6848 176.706 51.6471C173.273 48.9846 169.63 53.605 173.042 56.0793Z" fill="white"/>
<path d="M192.626 50.1841C194.329 49.1298 197.075 48.8609 198.074 50.8188C198.831 52.3033 198.477 55.5844 198.434 57.51C198.432 57.6151 198.39 57.7156 198.316 57.7899C198.242 57.8642 198.141 57.9066 198.036 57.908L197.246 57.9134C197.197 57.9134 197.149 57.9036 197.103 57.8846C197.058 57.8657 197.017 57.8378 196.982 57.8028C196.948 57.7678 196.921 57.7262 196.902 57.6806C196.884 57.6349 196.875 57.5861 196.876 57.5369C196.894 55.0088 196.872 53.3558 196.811 52.5776C196.645 50.5068 193.808 50.5606 192.749 51.787C191.793 52.895 192.153 56.0523 192.142 57.5423C192.142 57.804 192.012 57.9349 191.75 57.9349L190.89 57.9242C190.676 57.9206 190.568 57.8112 190.568 57.596L190.563 49.9098C190.561 49.7864 190.605 49.6667 190.686 49.5742C190.768 49.4816 190.881 49.4229 191.003 49.4095C191.573 49.3414 191.976 49.5601 192.212 50.0657C192.305 50.2594 192.443 50.2988 192.626 50.1841Z" fill="white"/>
<path d="M208.943 53.6373C208.943 54.8013 208.481 55.9177 207.659 56.7408C206.837 57.5639 205.722 58.0264 204.559 58.0264C203.396 58.0264 202.281 57.5639 201.459 56.7408C200.637 55.9177 200.175 54.8013 200.175 53.6373C200.175 52.4732 200.637 51.3568 201.459 50.5337C202.281 49.7106 203.396 49.2482 204.559 49.2482C205.722 49.2482 206.837 49.7106 207.659 50.5337C208.481 51.3568 208.943 52.4732 208.943 53.6373ZM207.38 53.6642C207.38 52.9166 207.083 52.1998 206.555 51.6712C206.027 51.1426 205.311 50.8457 204.564 50.8457C203.818 50.8457 203.101 51.1426 202.574 51.6712C202.046 52.1998 201.749 52.9166 201.749 53.6642C201.749 54.0343 201.822 54.4008 201.963 54.7427C202.105 55.0847 202.312 55.3954 202.574 55.6571C202.835 55.9188 203.145 56.1265 203.487 56.2681C203.828 56.4097 204.195 56.4826 204.564 56.4826C204.934 56.4826 205.3 56.4097 205.642 56.2681C205.983 56.1265 206.294 55.9188 206.555 55.6571C206.816 55.3954 207.024 55.0847 207.165 54.7427C207.307 54.4008 207.38 54.0343 207.38 53.6642Z" fill="white"/>
<path d="M223.385 53.6373C223.385 54.8042 222.922 55.9233 222.098 56.7484C221.274 57.5736 220.156 58.0371 218.99 58.0371C217.825 58.0371 216.707 57.5736 215.882 56.7484C215.058 55.9233 214.595 54.8042 214.595 53.6373C214.595 52.4704 215.058 51.3512 215.882 50.5261C216.707 49.701 217.825 49.2374 218.99 49.2374C220.156 49.2374 221.274 49.701 222.098 50.5261C222.922 51.3512 223.385 52.4704 223.385 53.6373ZM221.795 53.6749C221.795 52.926 221.498 52.2077 220.969 51.6782C220.44 51.1486 219.722 50.8511 218.974 50.8511C218.226 50.8511 217.508 51.1486 216.979 51.6782C216.451 52.2077 216.153 52.926 216.153 53.6749C216.153 54.4239 216.451 55.1421 216.979 55.6717C217.508 56.2013 218.226 56.4988 218.974 56.4988C219.722 56.4988 220.44 56.2013 220.969 55.6717C221.498 55.1421 221.795 54.4239 221.795 53.6749Z" fill="white"/>
<path d="M230.988 56.6601C230.37 56.8592 229.811 57.3056 229.225 57.4239C225.728 58.1447 223.342 54.4333 224.836 51.5234C226.05 49.1567 228.672 48.7641 230.837 50.1464C231.016 50.2612 231.153 50.2235 231.246 50.0335C231.507 49.4992 231.962 49.3181 232.61 49.4902C232.789 49.5368 232.879 49.6534 232.879 49.8398C232.893 51.7153 232.888 53.5835 232.863 55.4445C232.836 57.7682 233.046 59.796 230.354 60.6889C228.588 61.2734 226.867 61.0188 225.19 59.9251C224.968 59.7816 224.94 59.6059 225.105 59.398L225.534 58.8601C225.597 58.7809 225.687 58.7285 225.787 58.7135C225.887 58.6986 225.989 58.7221 226.072 58.7794C228.07 60.1456 231.299 59.8982 231.278 56.8753C231.278 56.6673 231.181 56.5956 230.988 56.6601ZM231.326 53.4544C231.326 52.7454 231.045 52.0654 230.544 51.5641C230.043 51.0628 229.364 50.7811 228.656 50.7811C227.948 50.7811 227.269 51.0628 226.768 51.5641C226.267 52.0654 225.986 52.7454 225.986 53.4544C225.986 54.1634 226.267 54.8433 226.768 55.3447C227.269 55.846 227.948 56.1276 228.656 56.1276C229.364 56.1276 230.043 55.846 230.544 55.3447C231.045 54.8433 231.326 54.1634 231.326 53.4544Z" fill="white"/>
<path d="M238.166 55.5467C238.176 55.5765 238.195 55.6023 238.221 55.6206C238.246 55.6389 238.277 55.6487 238.308 55.6487C238.34 55.6487 238.37 55.6389 238.396 55.6206C238.421 55.6023 238.44 55.5765 238.451 55.5467L240.567 49.9958C240.616 49.8627 240.702 49.7484 240.815 49.6677C241.223 49.3665 241.653 49.3127 242.104 49.5064C242.319 49.5996 242.38 49.7538 242.287 49.9689C241.047 52.895 239.862 55.83 238.73 58.774C237.92 60.8789 236.443 61.476 234.297 60.5651C234.246 60.5435 234.2 60.5119 234.162 60.4722C234.123 60.4326 234.092 60.3857 234.072 60.3341C234.051 60.2826 234.041 60.2275 234.042 60.1721C234.043 60.1167 234.055 60.0619 234.077 60.0111L234.356 59.3872C234.392 59.3081 234.456 59.2454 234.536 59.2115C234.615 59.1776 234.705 59.175 234.786 59.2043C236.21 59.7153 237.983 58.8224 237.247 57.1496C236.187 54.7363 235.18 52.3033 234.228 49.8506C234.156 49.657 234.22 49.5332 234.421 49.4795C235.232 49.2643 235.764 49.5655 236.076 50.3508C236.774 52.1007 237.471 53.8327 238.166 55.5467Z" fill="white"/>
</svg>
